<svg width="60" height="60" viewBox="0 0 60 60" fill="none" xmlns="http://www.w3.org/2000/svg">
<rect width="60" height="60" rx="30" fill="#74A314"/>
<path d="M44.9991 37.4756V42.0008C45.0008 42.4208 44.9147 42.8367 44.7464 43.2216C44.5781 43.6065 44.3313 43.952 44.0218 44.236C43.7122 44.52 43.3467 44.7362 42.9488 44.8708C42.5508 45.0054 42.1292 45.0553 41.7108 45.0175C37.0692 44.5132 32.6106 42.9271 28.6934 40.3868C25.0488 38.0709 21.9589 34.981 19.643 31.3364C17.0938 27.4013 15.5074 22.9211 15.0122 18.2587C14.9745 17.8415 15.0241 17.4211 15.1578 17.0242C15.2915 16.6273 15.5063 16.2626 15.7887 15.9533C16.0711 15.6439 16.4148 15.3968 16.7979 15.2276C17.181 15.0584 17.5951 14.9708 18.0139 14.9704H22.5391C23.2712 14.9632 23.9808 15.2224 24.5359 15.6997C25.0909 16.1771 25.4534 16.8399 25.5559 17.5648C25.7469 19.013 26.1011 20.4349 26.6118 21.8034C26.8147 22.3433 26.8586 22.93 26.7383 23.4941C26.618 24.0582 26.3386 24.576 25.933 24.9861L24.0173 26.9017C26.1646 30.6781 29.2914 33.8048 33.0677 35.9521L34.9833 34.0364C35.3935 33.6309 35.9112 33.3514 36.4753 33.2311C37.0394 33.1108 37.6262 33.1547 38.1661 33.3577C39.5346 33.8683 40.9565 34.2225 42.4046 34.4135C43.1374 34.5169 43.8065 34.886 44.2849 35.4506C44.7633 36.0151 45.0174 36.7358 44.9991 37.4756Z" stroke="white" stroke-width="3" stroke-linecap="round" stroke-linejoin="round"/>
</svg>
