<svg width="60" height="61" viewBox="0 0 60 61" fill="none" xmlns="http://www.w3.org/2000/svg">
<rect y="0.5" width="60" height="60" rx="30" fill="#74A314"/>
<path d="M40.805 27.5745C40.805 37.8138 30 46.5903 30 46.5903C30 46.5903 19.195 37.8138 19.195 27.5745C19.195 24.0829 20.3334 20.7344 22.3597 18.2655C24.386 15.7966 27.1343 14.4096 30 14.4096C32.8657 14.4096 35.614 15.7966 37.6403 18.2655C39.6666 20.7344 40.805 24.0829 40.805 27.5745Z" stroke="white" stroke-width="3" stroke-linecap="round" stroke-linejoin="round"/>
<path d="M30.2559 29.0286C32.3864 29.0286 34.1135 27.4985 34.1135 25.6109C34.1135 23.7233 32.3864 22.1931 30.2559 22.1931C28.1254 22.1931 26.3983 23.7233 26.3983 25.6109C26.3983 27.4985 28.1254 29.0286 30.2559 29.0286Z" stroke="white" stroke-width="3" stroke-linecap="round" stroke-linejoin="round"/>
</svg>
