<?xml version="1.0" standalone="no"?>
<!DOCTYPE svg PUBLIC "-//W3C//DTD SVG 20010904//EN"
 "http://www.w3.org/TR/2001/REC-SVG-20010904/DTD/svg10.dtd">
<svg version="1.0" xmlns="http://www.w3.org/2000/svg"
 width="200.000000pt" height="200.000000pt" viewBox="0 0 200.000000 200.000000"
 preserveAspectRatio="xMidYMid meet">
<metadata>
Created by potrace 1.14, written by Peter Selinger 2001-2017
</metadata>
<g transform="translate(0.000000,200.000000) scale(0.100000,-0.100000)"
fill="#000000" stroke="none">
<path d="M1056 1854 c-43 -24 -80 -44 -81 -44 -2 0 -38 -20 -79 -45 -42 -25
-81 -45 -86 -45 -6 0 -10 -4 -10 -10 0 -5 -4 -10 -9 -10 -5 0 -84 -43 -174
-95 -91 -52 -169 -95 -175 -95 -6 0 -12 -4 -14 -8 -4 -10 -164 -102 -178 -102
-5 0 -10 -4 -10 -9 0 -5 -8 -11 -17 -14 -22 -7 -118 -62 -155 -89 -16 -11 -28
-16 -28 -11 0 4 -4 3 -8 -4 -12 -18 -8 -88 5 -86 6 1 62 32 124 69 160 94 180
105 211 121 15 8 30 19 33 24 4 5 11 7 16 4 5 -4 9 -1 9 4 0 6 7 11 15 11 8 0
15 4 15 9 0 5 10 11 22 14 22 6 27 2 75 -60 12 -15 31 -39 43 -53 12 -14 70
-83 128 -155 59 -71 109 -132 112 -135 3 -3 35 -41 70 -85 36 -44 70 -86 77
-93 31 -32 37 -61 37 -184 1 -69 4 -129 7 -132 3 -4 90 43 192 104 102 60 191
110 197 110 6 0 10 5 8 12 -2 6 -24 13 -49 15 -24 2 -48 9 -53 14 -6 5 -20 9
-33 9 -13 0 -23 5 -23 10 0 6 -7 10 -16 10 -24 0 -140 121 -159 166 -9 21 -18
46 -20 54 -2 8 -4 15 -5 15 -12 0 -16 131 -6 184 17 86 87 186 162 231 21 13
41 27 44 32 3 4 17 10 30 12 14 2 25 5 25 6 0 3 38 10 80 16 22 3 41 6 42 8 2
2 -124 151 -225 264 -31 35 -64 68 -73 72 -11 6 -39 -5 -93 -36z"/>
<path d="M1387 1494 c-1 -1 -15 -4 -32 -7 -80 -13 -183 -96 -226 -183 -34 -71
-34 -207 0 -278 39 -78 118 -149 193 -174 80 -26 173 -23 239 7 68 31 191 156
172 175 -3 3 -2 6 4 6 5 0 10 6 11 13 14 105 15 144 7 187 -7 38 -56 131 -71
137 -8 3 -14 10 -14 17 0 22 -150 103 -164 89 -3 -4 -6 -2 -6 3 0 7 -105 15
-113 8z m135 -97 c52 -18 116 -81 140 -136 85 -198 -114 -407 -316 -330 -62
23 -103 59 -136 119 -43 79 -31 211 26 268 7 7 17 19 21 26 13 20 77 55 119
64 47 11 96 7 146 -11z"/>
<path d="M1373 1383 c-13 -3 -23 -9 -23 -14 0 -5 -3 -8 -7 -7 -16 5 -73 -37
-73 -54 0 -29 14 -28 61 3 70 45 149 44 208 -2 13 -11 30 -19 37 -19 18 0 18
25 -1 42 -33 30 -45 38 -45 32 0 -3 -6 -1 -14 5 -15 12 -104 21 -143 14z"/>
<path d="M1550 1025 c-13 -16 -6 -35 15 -35 15 0 28 27 19 41 -8 13 -20 11
-34 -6z"/>
<path d="M1498 995 c-2 -2 -19 -7 -37 -10 -45 -8 -51 -12 -44 -31 10 -26 113
-6 113 21 0 12 -24 28 -32 20z"/>
<path d="M375 1236 c-22 -12 -62 -35 -90 -51 -27 -17 -57 -34 -67 -40 -172
-102 -174 -103 -186 -136 -5 -13 -8 -109 -7 -213 l1 -189 31 -26 c18 -14 49
-35 70 -46 21 -10 45 -24 53 -31 8 -6 38 -24 65 -38 28 -15 57 -31 65 -36 36
-23 180 -105 230 -133 30 -16 67 -38 82 -49 14 -10 29 -18 32 -18 2 0 31 -15
63 -34 32 -18 79 -45 104 -59 l46 -25 89 50 c49 28 179 103 289 167 110 63
203 115 208 113 4 -1 7 3 7 8 0 6 7 10 15 10 8 0 15 5 15 10 0 6 5 10 11 10
13 0 149 79 168 98 18 17 24 172 7 172 -6 0 -24 -8 -41 -18 -16 -10 -50 -30
-75 -44 -25 -14 -116 -66 -202 -117 -86 -50 -162 -91 -167 -91 -6 0 -11 -4
-11 -10 0 -5 -7 -10 -15 -10 -8 0 -15 -5 -15 -11 0 -5 -4 -8 -9 -4 -5 3 -13 0
-16 -5 -4 -6 -17 -15 -28 -20 -12 -6 -40 -21 -62 -35 -22 -14 -47 -28 -55 -32
-8 -3 -32 -17 -53 -30 -44 -28 -50 -26 -48 14 2 30 1 53 -2 93 -1 14 2 31 7
38 6 8 6 16 0 20 -10 8 -11 208 -1 218 4 4 2 13 -4 21 -6 7 -8 13 -4 13 14 0
-82 123 -200 256 -5 7 -24 29 -42 50 -17 22 -41 50 -53 64 -46 52 -105 123
-110 131 -12 18 -57 16 -95 -5z m43 -385 c29 -17 56 -31 60 -31 4 -1 18 -10
31 -21 23 -19 25 -27 27 -132 2 -126 0 -143 -22 -151 -23 -9 -201 91 -209 118
-11 37 -8 236 5 251 14 17 33 11 108 -34z"/>
<path d="M1694 927 c-52 -56 -54 -51 63 -166 108 -107 135 -126 163 -122 27 5
50 34 50 63 0 23 -21 49 -107 134 -60 58 -115 110 -123 114 -11 6 -24 -1 -46
-23z"/>
</g>
</svg>
